<svg width="89" height="30" viewBox="0 0 82 21" fill="none" xmlns="http://www.w3.org/2000/svg">
<path d="M12.6417 13.304H6.23369C5.96169 13.96 5.72969 14.544 5.53769 15.056C5.34569 15.552 5.18569 15.984 5.05769 16.352C4.94569 16.72 4.86569 17.032 4.81769 17.288C4.76969 17.544 4.74569 17.752 4.74569 17.912C4.74569 18.36 4.88969 18.672 5.17769 18.848C5.46569 19.008 5.94569 19.088 6.61769 19.088V20H0.785687V19.088C1.15369 19.04 1.46569 18.976 1.72169 18.896C1.99369 18.816 2.22569 18.704 2.41769 18.56C2.62569 18.416 2.80169 18.232 2.94569 18.008C3.10569 17.768 3.25769 17.48 3.40169 17.144L9.64169 1.52H10.6737L16.1217 15.056C16.4897 15.952 16.8097 16.672 17.0817 17.216C17.3537 17.744 17.6177 18.144 17.8737 18.416C18.1297 18.688 18.4017 18.864 18.6897 18.944C18.9937 19.024 19.3537 19.064 19.7697 19.064V20H11.9457V19.064C12.7937 19.064 13.3777 18.984 13.6977 18.824C14.0177 18.664 14.1777 18.4 14.1777 18.032C14.1777 17.872 14.1697 17.728 14.1537 17.6C14.1377 17.456 14.1057 17.304 14.0577 17.144C14.0257 16.984 13.9697 16.808 13.8897 16.616C13.8257 16.408 13.7377 16.168 13.6257 15.896L12.6417 13.304ZM6.71369 12.104H12.1857L9.52169 5.024L6.71369 12.104ZM24.6528 16.232C24.6528 16.888 24.6688 17.408 24.7008 17.792C24.7328 18.16 24.8128 18.448 24.9408 18.656C25.0848 18.848 25.2848 18.976 25.5408 19.04C25.8128 19.104 26.1808 19.152 26.6448 19.184V20H20.3568V19.184C20.8048 19.152 21.1568 19.104 21.4128 19.04C21.6848 18.976 21.8928 18.848 22.0368 18.656C22.1808 18.464 22.2688 18.192 22.3008 17.84C22.3488 17.488 22.3728 17.008 22.3728 16.4V13.208C22.3728 11.304 22.3248 10.144 22.2288 9.728C22.1808 9.52 22.1168 9.352 22.0368 9.224C21.9728 9.08 21.8688 8.976 21.7248 8.912C21.5808 8.832 21.3968 8.784 21.1728 8.768C20.9488 8.736 20.6608 8.72 20.3088 8.72V7.952L24.1488 7.04L24.4368 9.416H24.5328C25.1408 8.664 25.8528 8.08 26.6688 7.664C27.4848 7.248 28.3728 7.04 29.3328 7.04C30.0688 7.04 30.7408 7.16 31.3488 7.4C31.9568 7.64 32.4208 7.968 32.7408 8.384C33.0128 8.752 33.2048 9.232 33.3168 9.824C33.4288 10.4 33.4848 11.2 33.4848 12.224V16.232C33.4848 16.888 33.5008 17.408 33.5328 17.792C33.5808 18.16 33.6688 18.448 33.7968 18.656C33.9248 18.848 34.1168 18.976 34.3728 19.04C34.6448 19.104 34.9968 19.152 35.4288 19.184V20H29.2128V19.184C29.6608 19.168 30.0128 19.128 30.2688 19.064C30.5408 18.984 30.7408 18.848 30.8688 18.656C31.0128 18.464 31.1008 18.192 31.1328 17.84C31.1808 17.472 31.2048 16.992 31.2048 16.4V13.232C31.2048 12.32 31.1568 11.552 31.0608 10.928C30.9648 10.304 30.8048 9.8 30.5808 9.416C30.3728 9.032 30.0928 8.76 29.7408 8.6C29.3888 8.424 28.9648 8.336 28.4688 8.336C27.7488 8.336 27.0848 8.528 26.4768 8.912C25.8848 9.28 25.4208 9.792 25.0848 10.448C25.0048 10.608 24.9328 10.76 24.8688 10.904C24.8208 11.048 24.7808 11.216 24.7488 11.408C24.7168 11.6 24.6928 11.824 24.6768 12.08C24.6608 12.32 24.6528 12.632 24.6528 13.016V16.232ZM47.6316 17.984H47.5356C46.9596 18.8 46.3436 19.384 45.6876 19.736C45.0476 20.072 44.2876 20.24 43.4076 20.24C42.4956 20.24 41.6556 20.08 40.8876 19.76C40.1356 19.424 39.4796 18.968 38.9196 18.392C38.3756 17.8 37.9436 17.096 37.6236 16.28C37.3196 15.464 37.1676 14.576 37.1676 13.616C37.1676 12.672 37.3196 11.8 37.6236 11C37.9436 10.184 38.3756 9.488 38.9196 8.912C39.4796 8.32 40.1436 7.864 40.9116 7.544C41.6796 7.208 42.5116 7.04 43.4076 7.04C44.1756 7.04 44.8556 7.168 45.4476 7.424C46.0556 7.68 46.6396 8.088 47.1996 8.648V6.2C47.1996 5.288 47.1836 4.528 47.1516 3.92C47.1356 3.312 47.1036 2.896 47.0556 2.672C46.9756 2.32 46.7516 2.072 46.3836 1.928C46.0156 1.784 45.4156 1.712 44.5836 1.712V0.991999L49.5036 0.079999V13.928C49.5036 15.032 49.5116 15.944 49.5276 16.664C49.5436 17.368 49.5916 17.872 49.6716 18.176C49.7196 18.368 49.7756 18.528 49.8396 18.656C49.9196 18.784 50.0236 18.888 50.1516 18.968C50.2956 19.032 50.4796 19.08 50.7036 19.112C50.9436 19.144 51.2476 19.16 51.6156 19.16V19.976L47.6316 20.24V17.984ZM47.1516 12.68C47.1516 11.848 47.1036 11.216 47.0076 10.784C46.9276 10.352 46.7596 9.976 46.5036 9.656C46.1356 9.176 45.6636 8.816 45.0876 8.576C44.5276 8.32 43.9676 8.192 43.4076 8.192C42.2556 8.192 41.3756 8.672 40.7676 9.632C40.1756 10.576 39.8796 11.864 39.8796 13.496C39.8796 14.344 39.9516 15.112 40.0956 15.8C40.2556 16.488 40.4796 17.08 40.7676 17.576C41.0716 18.056 41.4396 18.432 41.8716 18.704C42.3196 18.96 42.8316 19.088 43.4076 19.088C43.6956 19.088 43.9836 19.056 44.2716 18.992C44.5756 18.928 44.8636 18.832 45.1356 18.704C45.4236 18.56 45.6876 18.4 45.9276 18.224C46.1676 18.032 46.3676 17.816 46.5276 17.576C46.7516 17.224 46.9116 16.8 47.0076 16.304C47.1036 15.808 47.1516 15.128 47.1516 14.264V12.68ZM57.5389 16.184C57.5389 16.84 57.5549 17.36 57.5869 17.744C57.6189 18.128 57.6989 18.424 57.8269 18.632C57.9709 18.824 58.1709 18.952 58.4269 19.016C58.6829 19.08 59.0429 19.128 59.5069 19.16V20H53.1229V19.16C53.5869 19.144 53.9549 19.104 54.2269 19.04C54.4989 18.96 54.7069 18.824 54.8509 18.632C54.9949 18.44 55.0829 18.168 55.1149 17.816C55.1629 17.448 55.1869 16.96 55.1869 16.352V13.544C55.1869 12.456 55.1709 11.608 55.1389 11C55.1229 10.392 55.0429 9.944 54.8989 9.656C54.7709 9.368 54.5629 9.2 54.2749 9.152C53.9869 9.088 53.5869 9.056 53.0749 9.056V8.216L57.2749 7.304L57.6109 10.28H57.7069C57.9149 9.8 58.1709 9.36 58.4749 8.96C58.7949 8.56 59.1389 8.224 59.5069 7.952C59.8749 7.664 60.2589 7.44 60.6589 7.28C61.0589 7.12 61.4669 7.04 61.8829 7.04C62.3949 7.04 62.7949 7.168 63.0829 7.424C63.3869 7.664 63.5389 7.992 63.5389 8.408C63.5389 8.792 63.4189 9.096 63.1789 9.32C62.9389 9.528 62.5949 9.632 62.1469 9.632C61.8909 9.632 61.6749 9.6 61.4989 9.536C61.3229 9.472 61.1629 9.408 61.0189 9.344C60.8909 9.264 60.7629 9.192 60.6349 9.128C60.5229 9.064 60.3949 9.032 60.2509 9.032C59.8189 9.032 59.3869 9.312 58.9549 9.872C58.5229 10.416 58.1869 11.112 57.9469 11.96C57.8189 12.424 57.7149 12.952 57.6349 13.544C57.5709 14.12 57.5389 14.728 57.5389 15.368V16.184ZM75.9186 17.768C74.5586 19.416 72.8706 20.24 70.8546 20.24C69.9106 20.24 69.0546 20.088 68.2866 19.784C67.5186 19.464 66.8546 19.024 66.2946 18.464C65.7506 17.888 65.3266 17.208 65.0226 16.424C64.7186 15.624 64.5666 14.744 64.5666 13.784C64.5666 12.808 64.7266 11.904 65.0466 11.072C65.3666 10.24 65.8146 9.528 66.3906 8.936C66.9826 8.344 67.6786 7.88 68.4786 7.544C69.2946 7.208 70.1826 7.04 71.1426 7.04C72.6946 7.04 73.8946 7.464 74.7426 8.312C75.5906 9.144 76.0146 10.344 76.0146 11.912C76.0146 12.136 75.9666 12.272 75.8706 12.32C75.7906 12.368 75.5906 12.392 75.2706 12.392H67.3746C67.3426 12.52 67.3186 12.68 67.3026 12.872C67.2866 13.048 67.2786 13.248 67.2786 13.472C67.2786 14.304 67.3746 15.064 67.5666 15.752C67.7746 16.424 68.0626 17 68.4306 17.48C68.8146 17.96 69.2626 18.336 69.7746 18.608C70.3026 18.864 70.8866 18.992 71.5266 18.992C72.1986 18.992 72.8226 18.848 73.3986 18.56C73.9746 18.256 74.5666 17.768 75.1746 17.096L75.9186 17.768ZM71.9586 11.288C72.2786 11.288 72.5346 11.28 72.7266 11.264C72.9186 11.248 73.0626 11.216 73.1586 11.168C73.2546 11.12 73.3186 11.056 73.3506 10.976C73.3826 10.88 73.3986 10.76 73.3986 10.616C73.3986 9.88 73.1586 9.296 72.6786 8.864C72.2146 8.416 71.5746 8.192 70.7586 8.192C69.0306 8.192 67.9586 9.224 67.5426 11.288H71.9586ZM69.1506 4.376L72.2706 1.52C72.8466 0.991999 73.3826 0.727999 73.8786 0.727999C74.1506 0.727999 74.3666 0.799999 74.5266 0.943999C74.7026 1.088 74.7906 1.296 74.7906 1.568C74.7906 1.824 74.6786 2.056 74.4546 2.264C74.2466 2.456 73.9506 2.64 73.5666 2.816L70.2786 4.376H69.1506ZM78.7564 18.68C78.7564 18.232 78.9084 17.856 79.2124 17.552C79.5164 17.248 79.8844 17.096 80.3164 17.096C80.7644 17.096 81.1404 17.248 81.4444 17.552C81.7484 17.856 81.9004 18.232 81.9004 18.68C81.9004 19.112 81.7484 19.48 81.4444 19.784C81.1404 20.088 80.7644 20.24 80.3164 20.24C79.8844 20.24 79.5164 20.088 79.2124 19.784C78.9084 19.48 78.7564 19.112 78.7564 18.68Z" fill="white"/>
</svg>
